<svg width="25" height="24" viewBox="0 0 25 24" fill="none" xmlns="http://www.w3.org/2000/svg">
<g id="Logo icon / YouTube">
<path id="Vector" d="M24.0925 6.97453C24.0925 4.86516 22.5409 3.16828 20.6237 3.16828C18.0269 3.04687 15.3784 3 12.6719 3H11.8281C9.12811 3 6.47498 3.04687 3.8781 3.16875C1.96561 3.16875 0.414042 4.875 0.414042 6.98437C0.296855 8.65266 0.247167 10.3214 0.24998 11.9902C0.245292 13.6589 0.298417 15.3292 0.409355 17.0011C0.409355 19.1105 1.96092 20.8214 3.87342 20.8214C6.60154 20.948 9.39998 21.0042 12.2453 20.9995C15.0953 21.0089 17.8859 20.9495 20.6172 20.8214C22.5344 20.8214 24.0859 19.1105 24.0859 17.0011C24.1984 15.3277 24.25 13.6589 24.2453 11.9855C24.2559 10.3167 24.205 8.64641 24.0925 6.97453ZM9.9531 16.5886V7.37766L16.75 11.9808L9.9531 16.5886Z" fill="white"/>
</g>
</svg>
